<svg xmlns="http://www.w3.org/2000/svg" viewBox="0 0 32 32">
  <!-- Background circle -->
  <circle cx="16" cy="16" r="15" fill="#4A2A3B" stroke="#E87549" stroke-width="2"/>
  
  <!-- Clean air symbol - stylized lungs -->
  <g fill="#F1EFDC" stroke="#F1EFDC" stroke-width="0.5">
    <!-- Left lung -->
    <path d="M10 12c-2 0-3 1-3 3v6c0 2 1 3 3 3s3-1 3-3v-6c0-2-1-3-3-3z"/>
    <!-- Right lung -->
    <path d="M22 12c2 0 3 1 3 3v6c0 2-1 3-3 3s-3-1-3-3v-6c0-2 1-3 3-3z"/>
    <!-- Trachea -->
    <rect x="15" y="8" width="2" height="6" rx="1"/>
    <!-- Air flow lines -->
    <circle cx="16" cy="20" r="1" opacity="0.7"/>
    <circle cx="13" cy="18" r="0.5" opacity="0.5"/>
    <circle cx="19" cy="18" r="0.5" opacity="0.5"/>
    <circle cx="14" cy="22" r="0.5" opacity="0.5"/>
    <circle cx="18" cy="22" r="0.5" opacity="0.5"/>
  </g>
</svg>